<svg xmlns="http://www.w3.org/2000/svg" width="36" height="38" fill="none"><g filter="url(#filter0_d)"><path fill="#47474D" d="M18 2c7.732 0 14 6.268 14 14s-6.268 14-14 14S4 23.732 4 16 10.268 2 18 2zm-5.6 15.4l-5.513.001a11.205 11.205 0 009.713 9.712V21.6a4.2 4.2 0 01-4.2-4.2zm16.713.001L23.6 17.4a4.2 4.2 0 01-4.2 4.2l.001 5.513a11.205 11.205 0 009.712-9.712zM20.8 16h-5.6v1.4a1.4 1.4 0 001.4 1.4h2.8a1.4 1.4 0 001.4-1.4V16zM18 4.8a11.201 11.201 0 00-11.113 9.8H12.4a1.4 1.4 0 011.4-1.4h8.4a1.4 1.4 0 011.4 1.4h5.513A11.201 11.201 0 0018 4.8z"/></g><defs><filter id="filter0_d" width="40" height="40" x="-2" y="0" color-interpolation-filters="sRGB" filterUnits="userSpaceOnUse"><feFlood flood-opacity="0" result="BackgroundImageFix"/><feColorMatrix in="SourceAlpha" values="0 0 0 0 0 0 0 0 0 0 0 0 0 0 0 0 0 0 127 0"/><feOffset dy="4"/><feGaussianBlur stdDeviation="2"/><feColorMatrix values="0 0 0 0 0 0 0 0 0 0 0 0 0 0 0 0 0 0 0.25 0"/><feBlend in2="BackgroundImageFix" result="effect1_dropShadow"/><feBlend in="SourceGraphic" in2="effect1_dropShadow" result="shape"/></filter></defs></svg>
